<?xml version="1.0" encoding="UTF-8" standalone="no"?>
<svg
   viewBox="0 0 160 80"
   height="80mm"
   width="160mm"
   version="1.1"
   id="svg58"
   sodipodi:docname="fake-super.svg"
   inkscape:version="1.1.1 (3bf5ae0d25, 2021-09-20)"
   xmlns:inkscape="http://www.inkscape.org/namespaces/inkscape"
   xmlns:sodipodi="http://sodipodi.sourceforge.net/DTD/sodipodi-0.dtd"
   xmlns="http://www.w3.org/2000/svg"
   xmlns:svg="http://www.w3.org/2000/svg">
  <sodipodi:namedview
     id="namedview60"
     pagecolor="#ffffff"
     bordercolor="#111111"
     borderopacity="1"
     inkscape:pageshadow="0"
     inkscape:pageopacity="0"
     inkscape:pagecheckerboard="1"
     inkscape:document-units="mm"
     showgrid="false"
     inkscape:zoom="2.3233724"
     inkscape:cx="302.57741"
     inkscape:cy="151.2887"
     inkscape:window-width="1920"
     inkscape:window-height="1136"
     inkscape:window-x="0"
     inkscape:window-y="0"
     inkscape:window-maximized="1"
     inkscape:current-layer="svg58" />
  <defs
     id="defs38">
    <filter
       style="color-interpolation-filters:sRGB"
       id="c"
       x="-0.021881765"
       y="-0.034443518"
       width="1.0437635"
       height="1.068887">
      <feTurbulence
         baseFrequency="1"
         result="result1"
         id="feTurbulence2" />
      <feGaussianBlur
         stdDeviation=".318"
         id="feGaussianBlur4" />
      <feComponentTransfer
         id="feComponentTransfer14">
        <feFuncR
           type="linear"
           slope=".93"
           intercept=".8"
           id="feFuncR6" />
        <feFuncG
           type="linear"
           slope="0"
           id="feFuncG8" />
        <feFuncB
           type="linear"
           slope="0"
           id="feFuncB10" />
        <feFuncA
           type="linear"
           intercept=".8"
           slope="-.93"
           id="feFuncA12" />
      </feComponentTransfer>
    </filter>
    <filter
       style="color-interpolation-filters:sRGB"
       id="a"
       x="-0.027349468"
       y="-0.015156063"
       width="1.0546989"
       height="1.0303121">
      <feGaussianBlur
         stdDeviation=".332"
         id="feGaussianBlur17" />
    </filter>
    <filter
       style="color-interpolation-filters:sRGB"
       id="e"
       x="-0.094319061"
       y="-0.064068367"
       width="1.1886381"
       height="1.1281367">
      <feGaussianBlur
         stdDeviation="5.715099e-05"
         id="feGaussianBlur20" />
    </filter>
    <filter
       style="color-interpolation-filters:sRGB"
       id="f"
       x="-0.082825348"
       y="-0.067069938"
       width="1.1640355"
       height="1.1337588">
      <feGaussianBlur
         stdDeviation="5.715099e-05"
         id="feGaussianBlur23" />
    </filter>
    <filter
       style="color-interpolation-filters:sRGB"
       id="g"
       x="-0.065962545"
       y="-0.061453521"
       width="1.1294007"
       height="1.1231195">
      <feGaussianBlur
         stdDeviation="5.715099e-05"
         id="feGaussianBlur26" />
    </filter>
    <filter
       style="color-interpolation-filters:sRGB"
       id="h"
       x="-0.07010375"
       y="-0.063179137"
       width="1.1402086"
       height="1.1263583">
      <feGaussianBlur
         stdDeviation="5.715099e-05"
         id="feGaussianBlur29" />
    </filter>
    <filter
       style="color-interpolation-filters:sRGB"
       id="d"
       x="-0.036947284"
       y="-0.1000007"
       width="1.0738946"
       height="1.2000014">
      <feGaussianBlur
         stdDeviation=".322"
         id="feGaussianBlur32" />
    </filter>
    <clipPath
       clipPathUnits="userSpaceOnUse"
       id="b">
      <path
         style="color:#000;fill:#fafafa;fill-opacity:1;fill-rule:evenodd;stroke-width:.999998;-inkscape-stroke:none"
         d="M-25.395 17.125c-2.954 1.202-4.4 4.63-3.197 7.585l6.923 17.012c1.202 2.955 4.63 4.4 7.585 3.198l58.122-23.651c2.955-1.202 4.4-4.63 3.197-7.585L40.313-3.329c-1.203-2.954-4.63-4.4-7.585-3.197zm1.508 3.705L34.236-2.82c.966-.394 1.979.033 2.372.999l6.923 17.013c.393.966-.035 1.978-1 2.372l-58.123 23.65c-.966.394-1.979-.033-2.372-1l-6.923-17.012c-.393-.966.034-1.979 1-2.372zm1.85 1.039a1 1 0 0 0-.55 1.303l6.227 15.303a1 1 0 0 0 1.303.55l2.025-.824a1 1 0 0 0 .55-1.304l-2.453-6.025 6.256-2.546a1 1 0 0 0 .55-1.303l-.736-1.805a1 1 0 0 0-1.303-.55l-6.255 2.546-1.175-2.888 7.373-3a1 1 0 0 0 .55-1.303l-.735-1.806a1 1 0 0 0-1.303-.55zm17.441-7.097a1 1 0 0 0-.623.945l.349 17.695a1 1 0 0 0 1.377.907l2.151-.875a1 1 0 0 0 .622-.966l-.178-4.617 5.115-2.081 3.2 3.408a1 1 0 0 0 1.106.242l2.307-.939a1 1 0 0 0 .337-1.626L-1.323 14.11a1 1 0 0 0-1.091-.226zm11.45-4.66a1 1 0 0 0-.55 1.304l6.227 15.303a1 1 0 0 0 1.303.55l2.025-.824a1 1 0 0 0 .55-1.304l-2-4.911.874-2 7.612 4.892a1 1 0 0 0 .918.086l2.673-1.087a1 1 0 0 0 .146-1.78l-9.66-5.92 3.542-8.011a1 1 0 0 0-1.29-1.331l-2.746 1.117a1 1 0 0 0-.545.538l-3.573 8.46-2.179-5.356a1 1 0 0 0-1.303-.55zm15.854-6.45a1 1 0 0 0-.549 1.302l6.227 15.303a1 1 0 0 0 1.303.55l11.42-4.646a1 1 0 0 0 .549-1.304l-.735-1.806a1 1 0 0 0-1.303-.549l-8.469 3.446-1.366-3.357 7.54-3.069a1 1 0 0 0 .55-1.303l-.73-1.795a1 1 0 0 0-1.303-.549L28.3 8.954l-1.154-2.836 8.114-3.301a1 1 0 0 0 .55-1.303l-.735-1.806a1 1 0 0 0-1.303-.55zm-23.883 16.29c.119.13.173.207.298.341l2.339 2.525-2.513 1.023-.105-3.73a1 1 0 0 0-.001-.008c-.002-.051-.015-.1-.017-.15z"
         id="path35" />
    </clipPath>
  </defs>
  <path
     style="overflow:visible;fill:#050505;fill-rule:evenodd;stroke-width:4;stroke-linejoin:round;stop-color:#000"
     d="M-99.332-37.01h160v80h-160z"
     transform="translate(99.332 37.01)"
     id="path40" />
  <path
     style="fill:#6bed00;fill-rule:evenodd;filter:url(#a);overflow:visible;stop-color:#000;stroke-linejoin:round;stroke-width:15.11810181845669"
     d="M-62.642-27.114h1.188a4.359 4.359 0 0 1 4.368 4.369v45.847a4.359 4.359 0 0 1-4.368 4.369h-1.188a4.359 4.359 0 0 1-4.368-4.369v-45.847a4.359 4.359 0 0 1 4.368-4.369zM-43.432-27.244h1.188a4.359 4.359 0 0 1 4.368 4.368v45.848a4.359 4.359 0 0 1-4.368 4.368h-1.188a4.359 4.359 0 0 1-4.368-4.368v-45.848a4.359 4.359 0 0 1 4.368-4.368z"
     transform="translate(99.332 37.01)"
     id="path42" />
  <path
     style="fill:#6bed00;fill-rule:evenodd;filter:url(#a);overflow:visible;stop-color:#000;stroke-linejoin:round;stroke-width:0"
     d="M-25.216-10.086v1.188a4.359 4.359 0 0 1-4.368 4.368h-45.848A4.359 4.359 0 0 1-79.8-8.898v-1.188a4.359 4.359 0 0 1 4.368-4.368h45.848a4.359 4.359 0 0 1 4.368 4.368zM-25.086 9.124v1.188a4.359 4.359 0 0 1-4.368 4.369h-45.848a4.359 4.359 0 0 1-4.368-4.368V9.123a4.359 4.359 0 0 1 4.368-4.368h45.848a4.359 4.359 0 0 1 4.368 4.368zM35.45 32.562v1.188a4.359 4.359 0 0 1-4.367 4.369h-45.848a4.359 4.359 0 0 1-4.368-4.369v-1.188a4.359 4.359 0 0 1 4.368-4.368h45.848a4.359 4.359 0 0 1 4.368 4.368z"
     transform="translate(99.332 37.01)"
     id="path44" />
  <path
     clip-path="url(#b)"
     style="overflow:visible;fill:#fff;fill-rule:evenodd;stroke:#000;stroke-width:2.1935;stroke-linejoin:round;filter:url(#c);stop-color:#000"
     transform="translate(89.883 11.445) scale(1.36768)"
     d="M-32.525-8.3h85v54h-85z"
     id="path46" />
</svg>
